<?xml version="1.0" encoding="iso-8859-1"?>
<!-- Generator: Adobe Illustrator 19.0.0, SVG Export Plug-In . SVG Version: 6.00 Build 0)  -->
<svg version="1.1" id="Capa_1" xmlns="http://www.w3.org/2000/svg" xmlns:xlink="http://www.w3.org/1999/xlink" x="0px" y="0px"
	 viewBox="0 0 512 512" style="enable-background:new 0 0 512 512;" xml:space="preserve">
<path style="fill:#FFE082;" d="M432,336c-44.16,0-80-35.84-80-80c0,52.8-43.2,96-96,96s-96-43.2-96-96c0,0-40,32-80,0s-80,0-80,0
	c0,141.44,114.56,256,256,256c138.56,0,251.52-110.08,255.68-247.68C507.52,304.64,473.28,336,432,336z"/>
<g>
	<path style="fill:#F44336;" d="M304.64,448c-8.8,0-16.16-7.168-16.16-16s6.976-16,15.84-16h0.32c8.832,0,16,7.168,16,16
		S313.472,448,304.64,448z"/>
	<path style="fill:#F44336;" d="M240.64,448c-8.832,0-16.16-7.168-16.16-16s7.008-16,15.84-16h0.32c8.832,0,16,7.168,16,16
		S249.472,448,240.64,448z"/>
	<path style="fill:#F44336;" d="M176.64,416c-8.832,0-16.16-7.168-16.16-16s7.008-16,15.84-16h0.32c8.832,0,16,7.168,16,16
		S185.472,416,176.64,416z"/>
</g>
<path style="fill:#8D6E63;" d="M448,224c-44.192,0-80-35.808-80-80c0-5.536,0.576-10.944,1.632-16.16
	c-0.544,0-1.056,0.16-1.632,0.16c-44.192,0-80-35.808-80-80c0-16.192,4.896-31.2,13.152-43.776C286.464,1.6,271.424,0,256,0
	C114.56,0,0,114.56,0,256c0,0,40-32,80,0s80,0,80,0c0-52.8,43.2-96,96-96s96,43.2,96,96c0,44.16,35.84,80,80,80
	c41.28,0,75.52-31.36,79.68-71.68c0.32-2.88,0.32-5.44,0.32-8.32c0-19.488-2.368-38.368-6.464-56.576
	C490.976,214.528,470.624,224,448,224z"/>
<g>
</g>
<g>
</g>
<g>
</g>
<g>
</g>
<g>
</g>
<g>
</g>
<g>
</g>
<g>
</g>
<g>
</g>
<g>
</g>
<g>
</g>
<g>
</g>
<g>
</g>
<g>
</g>
<g>
</g>
</svg>
