<svg height="391pt" viewBox="-23 0 391 391.70948" width="391pt" xmlns="http://www.w3.org/2000/svg"><path d="m319.242188 146.203125c-3.664063 0-6.640626-2.96875-6.640626-6.636719 0-.003906 0-.003906 0-.007812v-26.574219c0-3.667969 2.972657-6.640625 6.640626-6.640625 3.671874 0 6.644531 2.972656 6.644531 6.640625v26.574219c.003906 3.667968-2.96875 6.640625-6.636719 6.644531 0 0-.003906 0-.007812 0zm0 0" fill="#fdbd40"/><path d="m252.8125 146.203125c-3.667969 0-6.640625-2.96875-6.644531-6.636719 0-.003906 0-.003906 0-.007812v-26.574219c0-3.667969 2.976562-6.640625 6.644531-6.640625s6.640625 2.972656 6.640625 6.640625v26.574219c.003906 3.667968-2.96875 6.640625-6.632813 6.644531-.003906 0-.003906 0-.007812 0zm0 0" fill="#32b1cc"/><path d="m20.300781 6.695312h159.4375c11.007813 0 19.929688 8.921876 19.929688 19.929688v312.230469h-199.296875v-312.230469c0-11.007812 8.921875-19.929688 19.929687-19.929688zm0 0" fill="#fdbd40"/><path d="m26.945312 33.269531h146.148438v66.429688h-146.148438zm0 0" fill="#32b1cc"/><path d="m239.527344 285.707031v19.929688c0 3.671875-2.976563 6.644531-6.644532 6.644531h-53.144531c-3.667969 0-6.644531-2.972656-6.644531-6.644531v-19.929688c0-7.335937-5.949219-13.285156-13.285156-13.285156-7.339844 0-13.285156 5.949219-13.285156 13.285156v33.21875c0 11.003907 8.921874 19.929688 19.929687 19.929688h79.714844c11.007812 0 19.929687-8.925781 19.929687-19.929688v-33.21875zm0 0" fill="#32b1cc"/><path d="m305.957031 285.707031v73.078125c0 3.667969-2.972656 6.640625-6.644531 6.640625h-172.71875c-3.671875 0-6.644531-2.972656-6.644531-6.640625v-73.078125c0-7.335937-5.949219-13.285156-13.285157-13.285156-7.339843 0-13.289062 5.949219-13.289062 13.285156v79.71875c0 14.675781 11.898438 26.574219 26.574219 26.574219h186.007812c14.675781 0 26.574219-11.898438 26.574219-26.574219v-79.71875zm0 0" fill="#d9176c"/><path d="m239.527344 205.992188h26.570312v79.714843h-26.570312zm0 0" fill="#2d75bb"/><path d="m252.8125 132.914062c-11.003906.015626-19.917969 8.929688-19.929688 19.929688v26.574219c-.003906 3.667969 2.96875 6.640625 6.636719 6.644531h.007813 26.570312c3.667969 0 6.640625-2.96875 6.644532-6.636719 0-.003906 0-.003906 0-.007812v-26.574219c-.011719-11-8.929688-19.914062-19.929688-19.929688zm0 0" fill="#2d75bb"/><path d="m305.957031 205.992188h26.574219v79.714843h-26.574219zm0 0" fill="#fdbd40"/><path d="m319.242188 132.914062c-11 .015626-19.917969 8.929688-19.929688 19.929688v26.574219c0 3.667969 2.972656 6.640625 6.636719 6.644531h.007812 26.574219c3.667969 0 6.640625-2.96875 6.640625-6.636719 0-.003906 0-.003906 0-.007812v-26.574219c-.011719-11-8.925781-19.914062-19.929687-19.929688zm0 0" fill="#d9176c"/><path d="m159.808594 186.0625c0 33.019531-26.769532 59.785156-59.789063 59.785156s-59.789062-26.765625-59.789062-59.785156c0-33.023438 26.769531-59.789062 59.789062-59.789062s59.789063 26.765624 59.789063 59.789062zm0 0" fill="#d9176c"/><path d="m66.796875 172.773438 19.929687-19.929688 46.5 46.5-19.929687 19.929688zm0 0" fill="#f49e21"/><g fill="#2d75bb"><path d="m66.804688 285.707031c0 7.339844-5.949219 13.289063-13.289063 13.289063-7.335937 0-13.285156-5.949219-13.285156-13.289063 0-7.335937 5.949219-13.285156 13.285156-13.285156 7.339844 0 13.289063 5.949219 13.289063 13.285156zm0 0"/><path d="m86.734375 53.199219h13.285156v26.570312h-13.285156zm0 0"/><path d="m113.304688 53.199219h13.285156v26.570312h-13.285156zm0 0"/><path d="m139.878906 53.199219h13.285156v26.570312h-13.285156zm0 0"/></g><path d="m266.105469 93.058594c-2.222657.003906-4.300781-1.109375-5.535157-2.960938l-26.570312-39.855468c-2.035156-3.054688-1.210938-7.179688 1.839844-9.214844 1.09375-.726563 2.375-1.113282 3.6875-1.113282h14.160156l-19.6875-29.53125c-2.066406-3.035156-1.28125-7.164062 1.753906-9.230468 3.03125-2.066406 7.164063-1.28125 9.226563 1.753906.027343.035156.050781.070312.074219.105469l26.570312 39.859375c2.035156 3.050781 1.210938 7.175781-1.839844 9.210937-1.09375.730469-2.375 1.117188-3.6875 1.117188h-14.160156l19.6875 29.53125c2.035156 3.050781 1.210938 7.175781-1.839844 9.210937-1.089844.726563-2.371094 1.113282-3.679687 1.117188zm0 0" fill="#d9176c"/><path d="m332.535156 93.058594c-2.222656.003906-4.300781-1.109375-5.53125-2.960938l-26.574218-39.855468c-2.035157-3.054688-1.210938-7.179688 1.839843-9.214844 1.09375-.726563 2.375-1.113282 3.6875-1.113282h14.164063l-19.691406-29.53125c-2.0625-3.035156-1.28125-7.164062 1.753906-9.230468 3.03125-2.066406 7.164062-1.28125 9.230468 1.753906.023438.035156.046876.070312.070313.105469l26.574219 39.859375c2.035156 3.050781 1.210937 7.175781-1.84375 9.210937-1.089844.730469-2.375 1.117188-3.683594 1.117188h-14.164062l19.691406 29.53125c2.035156 3.050781 1.207031 7.175781-1.84375 9.210937-1.089844.726563-2.371094 1.113282-3.679688 1.117188zm0 0" fill="#d9176c"/><path d="m226.238281 179.417969h53.144531v26.574219h-53.144531zm0 0" fill="#fdbd40"/><path d="m292.671875 179.417969h53.144531v26.574219h-53.144531zm0 0" fill="#32b1cc"/></svg>